<?xml version="1.0" standalone="no"?>
<!DOCTYPE svg PUBLIC "-//W3C//DTD SVG 20010904//EN"
 "http://www.w3.org/TR/2001/REC-SVG-20010904/DTD/svg10.dtd">
<svg version="1.0" xmlns="http://www.w3.org/2000/svg"
 width="948.000000pt" height="948.000000pt" viewBox="0 0 948.000000 948.000000"
 preserveAspectRatio="xMidYMid meet">
<metadata>
Created by potrace 1.14, written by Peter Selinger 2001-2017
</metadata>
<g transform="translate(0.000000,948.000000) scale(0.100000,-0.100000)"
fill="#000000" stroke="none">
<path d="M4479 9425 c-3 -2 -42 -6 -89 -10 -47 -3 -103 -8 -125 -11 -22 -2
-58 -7 -80 -10 -22 -2 -51 -7 -65 -9 -14 -3 -41 -7 -60 -10 -110 -19 -313 -58
-365 -71 -33 -9 -71 -18 -84 -20 -13 -3 -34 -10 -45 -16 -12 -6 -23 -11 -26
-10 -15 5 -363 -108 -368 -120 -2 -5 -9 -8 -16 -8 -20 0 -126 -44 -300 -124
-54 -25 -102 -46 -106 -46 -5 0 -10 -3 -12 -8 -1 -4 -34 -23 -73 -42 -38 -19
-72 -38 -75 -41 -3 -3 -32 -20 -65 -39 -33 -19 -62 -36 -65 -40 -3 -3 -30 -21
-60 -40 -30 -19 -59 -38 -65 -42 -61 -46 -106 -78 -110 -78 -5 0 -119 -84
-141 -105 -7 -5 -29 -23 -50 -40 -176 -140 -649 -609 -723 -719 -8 -11 -18
-23 -21 -26 -4 -3 -30 -36 -58 -75 -28 -38 -55 -74 -60 -80 -4 -5 -27 -39 -51
-75 -24 -36 -48 -66 -53 -68 -4 -2 -8 -8 -8 -12 0 -5 -24 -47 -54 -92 -29 -46
-75 -123 -101 -173 -27 -49 -52 -92 -55 -95 -4 -3 -10 -17 -13 -32 -4 -15 -14
-33 -22 -42 -8 -8 -15 -19 -15 -25 0 -6 -8 -25 -18 -43 -26 -48 -87 -192 -84
-197 2 -2 0 -7 -5 -10 -5 -3 -17 -28 -27 -56 -10 -27 -24 -63 -31 -80 -16 -37
-64 -180 -69 -203 -1 -9 -6 -24 -9 -32 -3 -8 -13 -44 -22 -80 -17 -63 -20 -77
-25 -92 -15 -54 -31 -120 -36 -148 -3 -19 -7 -42 -10 -50 -3 -8 -8 -31 -10
-50 -2 -19 -7 -46 -10 -60 -6 -24 -7 -33 -18 -95 -6 -31 -18 -141 -21 -185 0
-14 -4 -31 -8 -37 -4 -6 -3 -14 3 -18 6 -4 7 -12 3 -18 -10 -16 -11 -27 -18
-147 -11 -197 -7 -488 10 -635 1 -16 6 -59 9 -95 3 -36 8 -76 11 -90 8 -46 16
-105 21 -145 2 -22 6 -51 10 -65 3 -14 7 -34 8 -45 2 -11 6 -31 9 -45 4 -14
18 -74 32 -135 39 -167 129 -448 185 -580 9 -22 30 -71 46 -110 15 -38 31 -72
34 -75 3 -3 18 -34 34 -70 16 -36 36 -76 44 -90 9 -14 17 -27 18 -30 2 -12 18
-45 23 -50 3 -3 24 -39 45 -80 21 -41 42 -77 45 -80 6 -5 27 -43 58 -101 7
-15 20 -32 28 -39 8 -7 15 -16 15 -21 0 -25 255 -384 286 -402 8 -4 14 -12 14
-17 0 -6 8 -18 17 -29 10 -10 49 -54 88 -97 88 -99 404 -416 468 -469 27 -22
59 -49 70 -60 55 -51 318 -238 355 -252 9 -4 28 -17 41 -29 14 -13 28 -21 32
-19 4 3 12 -2 19 -10 7 -8 19 -15 26 -15 8 0 14 -3 14 -7 0 -5 19 -17 43 -28
23 -11 44 -23 47 -26 3 -4 48 -28 100 -55 52 -27 97 -52 98 -56 2 -5 9 -8 16
-8 7 0 30 -8 52 -19 44 -21 102 -46 224 -98 43 -18 103 -41 125 -47 6 -2 21
-8 35 -13 60 -25 276 -92 380 -118 8 -2 15 -4 15 -5 0 -1 8 -3 19 -5 10 -2 41
-9 70 -16 28 -7 53 -14 56 -14 3 -1 25 -5 50 -10 53 -10 59 -12 63 -15 1 -1
13 -3 27 -4 14 -2 39 -6 55 -9 48 -9 167 -27 210 -31 22 -3 40 -5 40 -6 0 -8
298 -24 455 -24 163 0 465 16 465 24 0 3 31 6 95 10 25 2 50 6 55 9 6 3 24 6
40 7 17 1 44 4 60 8 17 3 45 9 64 12 18 3 43 8 55 10 11 3 32 7 46 10 14 2 36
7 50 10 14 3 32 7 40 9 8 2 35 8 60 14 25 7 56 14 70 17 29 6 134 36 203 57
48 15 54 17 72 22 6 2 35 11 65 21 30 10 60 19 65 20 6 1 66 26 135 54 226 95
230 96 271 76 44 -21 90 -60 245 -211 68 -66 124 -120 124 -119 0 0 163 -162
363 -361 353 -352 441 -431 502 -451 36 -12 124 0 174 24 36 17 428 403 743
732 207 217 245 261 269 315 20 44 25 110 9 120 -6 4 -8 11 -5 16 11 17 -45
99 -140 205 -5 7 -138 143 -295 304 -410 420 -446 459 -497 524 l-46 59 24 46
c24 45 123 187 173 247 14 18 26 35 26 38 0 4 8 16 18 27 11 10 25 32 33 47 8
15 22 36 32 47 11 11 23 29 28 40 5 11 18 34 29 50 31 48 156 275 182 330 12
28 27 53 31 56 5 3 9 10 8 15 0 5 15 42 34 82 19 40 35 79 35 86 0 8 7 19 15
26 8 7 15 20 15 29 0 9 6 28 14 43 8 14 19 43 26 65 7 21 16 43 21 49 5 6 10
19 12 30 1 10 5 24 8 29 5 8 39 105 44 125 1 3 4 12 8 20 9 23 46 149 53 179
7 37 12 56 14 56 1 0 4 11 14 60 1 6 5 16 9 23 5 6 6 12 3 12 -2 0 0 15 5 33
5 17 12 48 15 67 11 68 12 75 14 75 1 0 3 9 5 20 2 11 5 29 8 40 2 11 8 47 11
80 4 33 9 71 11 85 2 14 6 55 9 93 14 166 18 202 22 209 3 5 0 8 -6 8 -7 0 -8
5 -3 13 8 13 12 517 3 517 -3 0 -6 28 -7 63 -1 35 -5 77 -8 93 -3 16 -8 52
-11 79 -8 77 -51 306 -78 416 -9 35 -18 73 -21 84 -2 11 -18 67 -35 125 -17
58 -33 110 -34 115 -2 6 -5 17 -9 25 -3 8 -20 58 -37 110 -18 52 -36 99 -41
104 -5 6 -9 16 -9 23 0 8 -9 33 -20 55 -11 23 -20 48 -20 55 0 7 -4 13 -10 13
-5 0 -10 7 -10 15 0 43 -323 653 -351 663 -5 2 -9 8 -9 13 0 8 -41 67 -93 134
-192 249 -241 309 -269 334 -10 9 -18 19 -18 24 0 13 -319 328 -392 386 -38
30 -68 58 -68 63 0 4 -7 8 -15 8 -7 0 -19 8 -24 18 -6 9 -11 13 -11 8 0 -6 -6
-3 -12 6 -18 22 -196 158 -207 158 -5 0 -11 4 -13 9 -1 5 -59 45 -128 90 -69
44 -130 84 -135 88 -37 27 -248 143 -256 140 -3 -1 -13 4 -21 10 -15 13 -103
57 -212 107 -55 26 -180 75 -291 116 -27 10 -59 21 -70 26 -11 4 -26 8 -33 10
-8 1 -21 6 -30 10 -20 9 -15 7 -72 23 -25 7 -53 15 -62 16 -9 2 -26 9 -37 15
-12 6 -21 8 -21 5 0 -3 -8 -1 -18 4 -11 6 -30 12 -43 14 -13 3 -44 10 -69 17
-25 7 -56 14 -69 17 -13 2 -32 8 -41 13 -10 5 -20 7 -22 4 -3 -2 -25 0 -49 6
-24 6 -58 13 -76 14 -17 2 -36 7 -42 10 -6 4 -32 9 -59 12 -26 2 -60 7 -77 9
-16 3 -52 8 -80 10 -27 3 -68 8 -90 11 -46 6 -621 15 -626 9z m333 -1690 c84
-3 176 -7 203 -10 28 -3 64 -7 81 -9 17 -2 39 -6 50 -9 10 -4 35 -9 54 -13 45
-8 65 -12 65 -14 0 -1 12 -4 28 -6 51 -9 201 -55 216 -67 12 -10 13 -9 7 1 -6
11 -4 11 10 3 11 -6 55 -25 99 -42 44 -17 104 -42 133 -55 29 -13 56 -24 61
-24 5 0 14 -7 21 -15 7 -8 21 -15 31 -15 11 0 19 -4 19 -9 0 -5 12 -14 28 -20
66 -27 312 -186 312 -202 0 -4 8 -10 18 -13 9 -3 33 -21 53 -38 20 -18 60 -53
89 -78 91 -77 245 -235 297 -305 5 -6 24 -30 44 -55 79 -100 195 -285 249
-395 8 -16 20 -37 26 -45 7 -8 13 -18 13 -22 1 -10 48 -114 67 -150 9 -16 12
-28 9 -28 -3 0 1 -12 9 -27 14 -27 26 -56 32 -78 1 -5 14 -41 28 -79 14 -38
25 -71 24 -75 0 -3 1 -8 2 -11 1 -3 3 -12 5 -20 2 -8 6 -24 9 -35 17 -67 47
-216 51 -251 3 -23 8 -61 11 -85 2 -24 7 -120 9 -214 2 -93 5 -172 6 -175 1
-3 1 -9 0 -14 -1 -6 -4 -60 -7 -120 -11 -267 -18 -316 -85 -551 -36 -124 -131
-362 -186 -465 -81 -149 -181 -280 -213 -280 -13 0 -6 -7 -695 678 -577 574
-632 626 -670 642 -73 30 -99 31 -149 7 -61 -30 -153 -115 -500 -463 -494
-494 -557 -567 -558 -653 -1 -99 49 -158 622 -732 423 -424 540 -545 540 -559
0 -3 -6 -7 -12 -8 -7 0 -26 -4 -43 -7 -16 -3 -41 -8 -55 -10 -14 -2 -25 -4
-25 -5 0 -1 -11 -3 -25 -5 -14 -1 -45 -5 -70 -9 -25 -3 -67 -9 -95 -12 -57 -7
-496 -14 -507 -7 -4 2 -51 6 -104 9 -53 2 -99 6 -103 8 -3 2 -31 7 -61 11 -30
4 -59 10 -65 13 -5 4 -19 7 -30 9 -85 9 -347 91 -460 143 -22 10 -70 32 -107
49 -37 17 -112 57 -168 91 -56 33 -104 60 -106 60 -5 0 -115 80 -124 90 -3 3
-21 17 -40 30 -19 14 -42 32 -51 40 -8 8 -49 44 -89 80 -128 113 -277 270
-389 410 -63 78 -221 340 -221 365 0 8 -4 15 -10 15 -5 0 -10 4 -10 9 0 5 -16
43 -35 84 -19 41 -35 77 -35 80 0 2 -9 25 -20 51 -12 25 -21 49 -21 53 0 5 -5
14 -11 21 -6 6 -7 12 -3 12 4 0 3 6 -2 13 -9 10 -48 129 -59 177 -1 8 -7 30
-13 48 -5 17 -7 32 -4 32 3 0 1 6 -4 13 -6 6 -13 28 -16 47 -10 60 -17 94 -23
120 -25 105 -33 222 -29 460 3 140 6 271 9 290 12 96 16 127 20 145 2 11 7 44
11 72 4 29 11 56 16 59 5 3 7 9 4 14 -3 5 2 31 10 58 9 27 18 55 19 63 2 8 8
26 14 40 5 14 25 68 42 120 34 98 43 119 106 259 142 312 407 670 643 867 19
15 53 45 76 66 23 20 47 37 54 37 6 0 11 4 11 9 0 13 130 100 253 170 60 33
110 61 112 61 2 0 46 20 99 45 53 25 102 45 109 45 7 0 17 4 22 8 11 9 116 52
137 56 7 2 20 6 28 9 72 28 329 93 405 102 28 3 66 8 85 11 19 2 74 6 123 8
48 2 90 6 94 9 3 4 9 4 14 1 4 -2 77 -7 161 -9z"/>
</g>
</svg>
